<svg width="158" height="172" viewBox="0 0 158 172" fill="none" xmlns="http://www.w3.org/2000/svg">
<path d="M157.061 161.061C157.646 160.475 157.646 159.525 157.061 158.939L147.515 149.393C146.929 148.808 145.979 148.808 145.393 149.393C144.808 149.979 144.808 150.929 145.393 151.515L153.879 160L145.393 168.485C144.808 169.071 144.808 170.021 145.393 170.607C145.979 171.192 146.929 171.192 147.515 170.607L157.061 161.061ZM0.5 0V6H3.5V0H0.5ZM0.5 6C0.5 91.8803 70.1197 161.5 156 161.5V158.5C71.7766 158.5 3.5 90.2234 3.5 6H0.5Z" fill="#00D2A4"/>
</svg>
