<svg width="28" height="37" viewBox="0 0 28 37" fill="none" xmlns="http://www.w3.org/2000/svg">
<path d="M27.1383 26.9742C27.7241 26.3884 27.7241 25.4387 27.1383 24.8529L17.5924 15.307C17.0066 14.7212 16.0568 14.7212 15.471 15.307C14.8852 15.8928 14.8852 16.8425 15.471 17.4283L23.9563 25.9136L15.471 34.3989C14.8852 34.9846 14.8852 35.9344 15.471 36.5202C16.0568 37.106 17.0066 37.106 17.5924 36.5202L27.1383 26.9742ZM0.577637 0.913574V1.91357H3.57764V0.913574H0.577637ZM0.577637 1.91357C0.577637 15.9968 11.9944 27.4136 26.0776 27.4136V24.4136C13.6512 24.4136 3.57764 14.34 3.57764 1.91357H0.577637Z" fill="#218771"/>
</svg>
